<svg xmlns="http://www.w3.org/2000/svg" width="640" height="360" viewBox="0 0 640 360" role="img" aria-label="Blurred orders dashboard mockup">
  <rect width="640" height="360" fill="#f8fafc"/>
  <rect x="16" y="16" width="608" height="328" rx="14" fill="#fff" stroke="#e2e8f0"/>
  <rect x="34" y="36" width="150" height="14" rx="7" fill="#cbd5e1"/>
  <rect x="34" y="68" width="572" height="1" fill="#e5e7eb"/>
  <rect x="34" y="90" width="572" height="46" rx="10" fill="#f8fafc"/>
  <rect x="48" y="106" width="220" height="12" rx="6" fill="#94a3b8"/>
  <rect x="480" y="102" width="110" height="20" rx="10" fill="#dcfce7"/>
  <rect x="34" y="148" width="572" height="46" rx="10" fill="#f8fafc"/>
  <rect x="48" y="164" width="190" height="12" rx="6" fill="#94a3b8"/>
  <rect x="480" y="160" width="110" height="20" rx="10" fill="#dbeafe"/>
  <rect x="34" y="206" width="572" height="46" rx="10" fill="#f8fafc"/>
  <rect x="48" y="222" width="240" height="12" rx="6" fill="#94a3b8"/>
  <rect x="480" y="218" width="110" height="20" rx="10" fill="#fee2e2"/>
  <rect x="34" y="274" width="572" height="50" rx="10" fill="#f1f5f9"/>
</svg>
